PathFileType	4	(X/Y/Z)	C:\Users\°ÂÌØÂü\Desktop\20201223\Trimmed_bx_n_0_901.trc
DataRate	CameraRate	NumFrames	NumMarkers	Units	OrigDataRate	OrigDataStartFrame	OrigNumFrames
50.00	50.00	       7	43	mm	50.00	734	       978
Frame#	Time	Top.Head			R.Acromium			L.Acromium			Sternum			R.ASIS			L.ASIS			V.Sacral			R.Thigh.Upper			R.Thigh.Front			R.Thigh.Rear			R.Knee.Lat			R.Knee.Med			R.Shank.Upper			R.Shank.Front			R.Shank.Rear			R.Ankle.Lat			R.Midfoot.Lat			R.Toe.Lat			R.Toe.Tip			R.Toe.Med			R.Ankle.Med			R.Midfoot.Sup			R.Heel			L.Thigh.Upper			L.Thigh.Front			L.Thigh.Rear			L.Knee.Lat			L.Knee.Med			L.Shank.Upper			L.Shank.Front			L.Shank.Rear			L.Ankle.Lat			L.Midfoot.Lat			L.Toe.Lat			L.Toe.Tip			L.Toe.Med			L.Ankle.Med			L.Midfoot.Sup			L.Heel			origin1 front left			origin2 front right			origin 3 back right			origin 4 back leftt			
		X1	Y1	Z1	X2	Y2	Z2	X3	Y3	Z3	X4	Y4	Z4	X5	Y5	Z5	X6	Y6	Z6	X7	Y7	Z7	X8	Y8	Z8	X9	Y9	Z9	X10	Y10	Z10	X11	Y11	Z11	X12	Y12	Z12	X13	Y13	Z13	X14	Y14	Z14	X15	Y15	Z15	X16	Y16	Z16	X17	Y17	Z17	X18	Y18	Z18	X19	Y19	Z19	X20	Y20	Z20	X21	Y21	Z21	X22	Y22	Z22	X23	Y23	Z23	X24	Y24	Z24	X25	Y25	Z25	X26	Y26	Z26	X27	Y27	Z27	X28	Y28	Z28	X29	Y29	Z29	X30	Y30	Z30	X31	Y31	Z31	X32	Y32	Z32	X33	Y33	Z33	X34	Y34	Z34	X35	Y35	Z35	X36	Y36	Z36	X37	Y37	Z37	X38	Y38	Z38	X39	Y39	Z39	X40	Y40	Z40	X41	Y41	Z41	X42	Y42	Z42	X43	Y43	Z43	

734	14.660	-547.53339	243.47769	1821.84387	-554.71643	62.12914	1522.58594	-547.04657	424.38925	1520.99402	-491.83691	242.89157	1330.79480	-590.71698	128.53922	1030.09180	-559.43402	348.23935	1027.86304	-772.19818	256.51813	1076.71021	-676.63885	81.11059	835.05811	-584.05084	128.35728	801.28644	-688.02875	96.59234	720.97888	-694.47449	114.94495	601.16949	-667.47205	221.33823	557.66736	-717.44214	114.77431	536.23230	-638.21112	164.75853	527.01080	-722.23999	107.15362	484.36819	-692.90802	137.84047	211.96674	-616.28278	78.31271	167.26860	-570.91394	56.57101	164.12781	-494.64594	98.24183	161.11287	-536.43042	148.91179	163.04703	-643.98193	214.88834	221.55368	-598.58783	187.96765	171.10428	-726.16437	204.47099	168.76936	-651.92841	440.85538	858.62482	-570.31622	386.88080	817.24542	-669.45160	433.33896	741.83618	-680.42371	415.76749	604.63739	-669.79871	306.53238	566.19269	-693.49866	420.18634	557.46069	-635.97571	363.93509	535.29492	-741.56842	426.15784	490.94363	-677.98010	421.96353	215.08197	-579.08179	464.80582	165.16220	-540.53101	475.01709	159.32790	-485.14825	419.23578	167.91887	-525.79492	382.20398	177.57315	-649.45770	329.63101	209.74030	-598.33008	347.31885	170.12131	-735.74359	355.72961	161.11461	-444.03537	448.59122	146.50644	-450.43097	74.99991	143.36137	-806.29089	82.24906	141.31157	-799.61835	456.96402	145.19099	
735	14.680	-536.60571	243.19287	1818.63843	-548.57324	61.68380	1519.92957	-541.06702	423.72473	1518.50244	-490.41205	242.66136	1326.73608	-595.15094	128.88872	1029.06824	-564.08710	348.42233	1026.93262	-776.17560	256.48251	1077.58533	-680.76007	81.23716	834.92065	-587.98889	128.74026	801.46863	-691.44391	96.69670	721.07660	-697.04590	114.95141	600.87793	-670.05096	221.31833	557.45294	-719.63660	114.73846	535.84485	-640.41504	164.73557	527.19086	-724.08679	106.94737	484.12146	-693.07855	137.67259	211.79124	-616.32654	78.29977	167.23047	-570.94263	56.55081	164.08310	-494.65234	98.26723	161.14548	-536.46814	148.92073	163.10530	-644.25256	214.69835	221.73232	-598.64288	187.86212	171.20233	-726.26538	204.35800	168.77516	-656.44073	440.96329	858.50763	-574.62549	386.82089	817.41101	-673.02240	433.68484	741.64166	-683.06641	416.02557	604.42212	-672.41876	306.50644	566.34686	-695.84326	420.47195	557.31213	-638.30560	363.98776	535.34760	-743.52484	426.48874	490.40329	-678.15961	422.03802	215.03737	-579.10303	464.82657	165.14896	-540.54364	475.00235	159.36121	-485.24585	419.27338	167.95552	-525.91272	382.33841	177.71317	-649.72406	329.92099	209.69267	-598.44305	347.36273	170.23640	-735.79102	355.77844	161.07417	-444.07199	448.61472	146.44763	-450.43420	75.00062	143.34511	-806.28662	82.25297	141.29643	-799.65930	456.95959	145.19029	
736	14.700	-525.59796	242.81056	1814.93298	-542.19482	61.21943	1516.85583	-534.87732	423.04532	1515.64526	-488.92761	242.40411	1322.36218	-599.69678	129.33896	1027.96521	-568.77948	348.61575	1025.93433	-780.22211	256.45486	1078.38123	-684.92084	81.33236	834.75952	-591.97485	129.11168	801.63971	-694.89685	96.74902	721.18799	-699.67346	114.93105	600.59692	-672.60632	221.27045	557.22400	-721.87012	114.66671	535.48950	-642.62543	164.70824	527.32782	-725.98248	106.75266	483.83334	-693.23303	137.51961	211.61313	-616.37878	78.28599	167.19490	-570.93982	56.55205	164.02942	-494.67987	98.26439	161.17705	-536.50739	148.93225	163.13783	-644.54584	214.55608	221.87910	-598.70288	187.77022	171.29601	-726.33984	204.26437	168.76265	-661.03687	441.13638	858.39056	-578.94446	386.82324	817.56982	-676.65369	434.03366	741.43250	-685.75494	416.26328	604.19147	-675.12830	306.62482	566.35645	-698.27185	420.77890	557.18451	-640.63751	364.03391	535.36505	-745.47430	426.79028	489.83911	-678.32660	422.12805	214.97556	-579.11664	464.82639	165.15396	-540.54852	474.98065	159.40549	-485.33572	419.34326	167.99060	-525.99683	382.47961	177.84198	-649.98651	330.13187	209.67615	-598.50934	347.40567	170.37881	-735.82837	355.81595	161.06206	-444.08832	448.62570	146.40443	-450.43048	74.99934	143.33823	-806.28625	82.26002	141.28743	-799.71350	456.92920	145.17462	
737	14.720	-514.50934	242.33713	1810.74463	-535.59039	60.73087	1513.35986	-528.50415	422.33850	1512.39392	-487.38364	242.10170	1317.68506	-604.29297	129.81757	1026.82556	-573.48865	348.79349	1024.86731	-784.26599	256.42355	1079.10754	-689.11877	81.36861	834.56824	-596.02887	129.44289	801.78546	-698.34332	96.71593	721.25568	-702.33942	114.87312	600.33777	-675.12836	221.18237	557.01923	-724.11182	114.54457	535.17365	-644.84283	164.69104	527.42157	-727.90570	106.55646	483.47937	-693.40045	137.38655	211.47289	-616.44733	78.25452	167.12744	-570.91547	56.55768	163.97035	-494.73914	98.24258	161.21892	-536.54578	148.94270	163.15411	-644.87811	214.43129	221.99527	-598.78027	187.69835	171.36382	-726.39453	204.18411	168.73146	-665.66077	441.38498	858.28644	-583.24860	386.87143	817.71521	-680.29462	434.38159	741.21039	-688.45074	416.48737	603.95685	-677.83801	306.81647	566.26984	-700.75745	421.07349	557.04260	-642.98639	364.11145	535.36639	-747.40332	427.08014	489.27661	-678.48248	422.25653	214.88686	-579.12781	464.81577	165.16040	-540.54517	474.96109	159.45349	-485.43402	419.42560	168.01331	-526.04657	382.61215	177.94243	-650.19409	330.16531	209.75739	-598.47552	347.43030	170.60518	-735.87225	355.84518	161.06995	-444.09314	448.62375	146.39104	-450.42719	74.99725	143.34628	-806.29614	82.26881	141.29024	-799.75781	456.90189	145.16551	
738	14.740	-503.32968	241.79642	1806.08826	-528.78589	60.21038	1509.44690	-521.97235	421.60172	1508.73816	-485.77646	241.75793	1312.71521	-608.87115	130.21808	1025.69434	-578.22479	348.91064	1023.73035	-788.24487	256.37061	1079.78394	-693.34467	81.34357	834.33331	-600.14471	129.71364	801.89246	-701.72028	96.59946	721.16669	-705.02997	114.77729	600.09869	-677.63464	221.06435	556.86505	-726.34955	114.39292	534.87109	-647.07959	164.68303	527.49115	-729.83936	106.35687	483.06409	-693.60608	137.27365	211.40309	-616.53937	78.19727	167.00475	-570.88098	56.54966	163.90918	-494.82104	98.21915	161.27443	-536.58002	148.95021	163.16859	-645.23932	214.28651	222.08649	-598.88184	187.65547	171.41121	-726.44037	204.10564	168.69136	-670.24652	441.69757	858.20551	-587.51874	386.94687	817.84229	-683.90546	434.73001	740.97589	-691.11523	416.70810	603.72894	-680.48566	307.00864	566.15631	-703.24670	421.31952	556.84937	-645.35834	364.23285	535.37280	-749.30530	427.38397	488.73474	-678.62732	422.43884	214.77596	-579.13977	464.80786	165.15384	-540.53632	474.95374	159.49434	-485.54541	419.49622	168.02150	-526.07831	382.72150	177.99872	-650.32544	330.00995	209.94604	-598.30707	347.41342	170.95760	-735.93121	355.87039	161.09236	-444.09521	448.61453	146.40620	-450.42944	74.99367	143.36568	-806.32330	82.27275	141.30602	-799.78412	456.89151	145.17149	
739	14.760	-492.04633	241.20956	1800.97302	-521.83112	59.64186	1505.13489	-515.30737	420.84631	1504.68896	-484.10712	241.39449	1307.46472	-613.38025	130.45924	1024.59668	-582.99792	348.93240	1022.52704	-792.14117	256.27911	1080.42554	-697.58136	81.27750	834.04327	-604.29205	129.91072	801.95380	-704.97919	96.42266	720.78992	-707.73535	114.64927	599.86761	-680.15161	220.94272	556.75861	-728.59674	114.23276	534.55139	-649.35010	164.67030	527.56323	-731.78149	106.17099	482.61841	-693.86420	137.17307	211.39909	-616.65002	78.11976	166.83498	-570.84534	56.51551	163.84688	-494.90729	98.21096	161.33632	-536.60913	148.95593	163.19418	-645.60004	214.09570	222.16930	-599.00989	187.64326	171.46747	-726.49213	204.01328	168.65332	-674.74664	442.04199	858.13977	-591.74524	387.02383	817.94482	-687.46960	435.08163	740.73132	-693.73035	416.92331	603.50775	-683.08069	307.17590	566.04321	-705.68201	421.50409	556.59015	-647.73792	364.37460	535.40613	-751.18353	427.71918	488.21307	-678.75708	422.66800	214.65976	-579.15228	464.80984	165.13036	-540.52802	474.96368	159.52153	-485.66022	419.53629	168.02019	-526.11493	382.79788	177.99911	-650.41583	329.77228	210.18895	-598.01660	347.34601	171.42117	-735.99536	355.89514	161.13301	-444.09839	448.60672	146.43639	-450.43524	74.98532	143.38918	-806.37128	82.26276	141.33080	-799.79242	456.89606	145.18710	
740	14.780	-480.65341	240.57816	1795.40564	-514.79370	59.00459	1500.45410	-508.54230	420.08566	1500.27087	-482.38544	241.03070	1301.95618	-617.79224	130.52977	1023.52417	-587.78418	348.87106	1021.26453	-795.98029	256.14063	1081.04065	-701.80219	81.19756	833.69806	-608.42908	130.03174	801.97192	-708.11865	96.20763	720.06104	-710.44409	114.50030	599.62842	-682.69940	220.84198	556.66650	-730.87640	114.06366	534.20477	-651.65686	164.64264	527.65479	-733.73712	106.01324	482.17810	-694.17224	137.06918	211.41348	-616.75964	78.03651	166.65460	-570.81464	56.45270	163.78392	-494.98306	98.22752	161.39076	-536.63391	148.96439	163.23656	-645.93420	213.85625	222.27118	-599.16180	187.64926	171.56361	-726.56995	203.89040	168.62260	-679.14746	442.37573	858.05762	-595.93127	387.06720	818.01184	-690.98993	435.43973	740.48071	-696.30896	417.12045	603.27917	-685.67749	307.33603	565.90576	-708.02740	421.65521	556.28394	-650.09100	364.49911	535.48193	-753.04999	428.08447	487.69147	-678.87042	422.91437	214.55925	-579.16376	464.82166	165.09795	-540.52625	474.98474	159.53471	-485.76227	419.53580	168.01297	-526.17566	382.83630	177.93938	-650.54419	329.62451	210.40247	-597.67554	347.24609	171.91342	-736.03961	355.92181	161.19914	-444.10202	448.60678	146.46861	-450.43665	74.96965	143.41084	-806.43451	82.23278	141.36023	-799.78534	456.90512	145.20189	
